<?xml version="1.0" encoding="UTF-8"?>
<svg width="28px" height="32px" viewBox="0 0 28 32" version="1.1" xmlns="http://www.w3.org/2000/svg" xmlns:xlink="http://www.w3.org/1999/xlink">
    <title>Android</title>
    <g id="Page-1" stroke="none" stroke-width="1" fill="none" fill-rule="evenodd">
        <g id="AJIAD-HOME" transform="translate(-1068.000000, -2761.000000)" fill="#8BC34A" fill-rule="nonzero">
            <g id="Group-18" transform="translate(933.000000, 2717.000000)">
                <g id="Android" transform="translate(135.000000, 44.000000)">
                    <path d="M1.99635088,11.9770448 C0.894502924,11.9770448 0.000249512671,12.8712982 0.000249512671,13.9731462 L0.000249512671,21.9575517 C0.000249512671,23.0593996 0.894502924,23.953653 1.99635088,23.953653 C3.09819883,23.953653 3.99245224,23.0593996 3.99245224,21.9575517 L3.99245224,13.9731462 C3.99245224,12.8712982 3.09819883,11.9770448 1.99635088,11.9770448 Z" id="Path"></path>
                    <path d="M25.9495673,11.9770448 C24.8477193,11.9770448 23.9534659,12.8712982 23.9534659,13.9731462 L23.9534659,21.9575517 C23.9534659,23.0593996 24.8477193,23.953653 25.9495673,23.953653 C27.0514152,23.953653 27.9456686,23.0593996 27.9456686,21.9575517 L27.9456686,13.9731462 C27.9456686,12.8712982 27.0514152,11.9770448 25.9495673,11.9770448 Z" id="Path"></path>
                    <path d="M5.98855361,24.0694269 C5.98855361,25.1712749 6.88280702,26.0655283 7.98465497,26.0655283 L7.98465497,29.9419571 C7.98465497,31.0438051 8.87890838,31.9380585 9.98075634,31.9380585 C11.0826043,31.9380585 11.9768577,31.0438051 11.9768577,29.9419571 L11.9768577,26.0655283 L15.9690604,26.0655283 L15.9690604,29.9419571 C15.9690604,31.0438051 16.8633138,31.9380585 17.9651618,31.9380585 C19.0670097,31.9380585 19.9612632,31.0438051 19.9612632,29.9419571 L19.9612632,26.0655283 C21.0631111,26.0655283 21.9573645,25.1712749 21.9573645,24.0694269 L21.9573645,12.0928187 L5.98855361,12.0928187 L5.98855361,24.0694269 Z" id="Path"></path>
                    <path d="M18.9552281,3.78704094 L20.7317583,1.63324756 C21.0830721,1.20807797 21.0231891,0.579306043 20.5980195,0.227992203 C20.1708538,-0.121325536 19.544078,-0.0634385965 19.1927641,0.361730994 L17.2505575,2.7151345 C16.2485146,2.26201949 15.1446706,1.99653801 13.9729591,1.99653801 C12.7852788,1.99653801 11.667462,2.272 10.6554386,2.73908772 L8.7651306,0.375703704 C8.41980507,-0.0534580897 7.79302924,-0.125317739 7.36187135,0.220007797 C6.93270955,0.565333333 6.862846,1.19210916 7.20617544,1.62326706 L8.95875244,3.81498635 C7.16026511,5.27812865 5.98855361,7.48182456 5.98855361,9.98094347 L21.9573645,9.98094347 C21.9573645,7.46585575 20.7716803,5.25018324 18.9552281,3.78704094 Z M11.9768577,6.98679142 C11.4259337,6.98679142 10.978807,6.53966472 10.978807,5.98874074 C10.978807,5.43781676 11.4259337,4.99069006 11.9768577,4.99069006 C12.5277817,4.99069006 12.9749084,5.43781676 12.9749084,5.98874074 C12.9749084,6.53966472 12.5277817,6.98679142 11.9768577,6.98679142 Z M15.9690604,6.98679142 C15.4181365,6.98679142 14.9710097,6.53966472 14.9710097,5.98874074 C14.9710097,5.43781676 15.4181365,4.99069006 15.9690604,4.99069006 C16.5199844,4.99069006 16.9671111,5.43781676 16.9671111,5.98874074 C16.9671111,6.53966472 16.5199844,6.98679142 15.9690604,6.98679142 Z" id="Shape"></path>
                </g>
            </g>
        </g>
    </g>
</svg>