<?xml version="1.0" encoding="UTF-8"?>
<svg width="200px" height="70px" viewBox="0 0 200 70" version="1.1" xmlns="http://www.w3.org/2000/svg" xmlns:xlink="http://www.w3.org/1999/xlink">
    <title>Logo</title>
    <defs>
        <polygon id="path-1" points="0 69.2332852 199.539142 69.2332852 199.539142 0 0 0"></polygon>
    </defs>
    <g id="Page-1" stroke="none" stroke-width="1" fill="none" fill-rule="evenodd">
        <g id="AJIAD-HOME" transform="translate(-1140.000000, -20.000000)">
            <g id="Logo" transform="translate(1140.000000, 20.000000)">
                <path d="M5.9299497,51.0315097 L7.24539694,48.3573845 L7.98031817,46.8270192 L9.41063546,51.0315097 L5.9299497,51.0315097 Z M14.3333725,57.327129 L13.9424438,56.3285008 L11.1200993,48.6427069 L9.82194431,44.9285756 C9.27229734,44.9415448 8.70782843,44.9458678 8.13224307,44.9458678 C7.80677795,44.9458678 7.24848485,44.9415448 6.46106925,44.9285756 C5.97071004,45.9654939 5.35127643,47.1901567 4.60894423,48.6068872 L2.21705355,53.1924251 C1.36849744,54.8345727 0.629870724,56.2142483 -6.17580864e-05,57.327129 C0.768826418,57.3147774 1.29377015,57.3086016 1.57044638,57.3086016 L3.05325804,57.327129 C3.72518602,55.8319657 4.4131711,54.3633585 5.12153635,52.9213071 L9.9028474,52.9213071 C10.121471,53.4900991 10.3851781,54.2330489 10.7001443,55.1489213 C11.0120226,56.0604707 11.2411451,56.7873633 11.3862766,57.327129 C12.129844,57.3147774 12.6591108,57.3086016 12.9734595,57.3086016 L14.3333725,57.327129 Z" id="Fill-8" fill="#0176A4"></path>
                <path d="M16.039872,44.7833823 C16.0281379,45.2867107 16.0028171,45.8511796 15.9657623,46.4817297 C16.4153611,46.4687605 16.853226,46.4632023 17.2793568,46.4632023 C17.6925184,46.4632023 18.1272953,46.4687605 18.58307,46.4817297 C18.6059205,45.9543156 18.6201248,45.6751691 18.6201248,45.6455252 L18.6732368,44.7833823 C18.2372247,44.7938812 17.7993599,44.8012922 17.3621126,44.8012922 C16.8754589,44.8012922 16.4338886,44.7938812 16.039872,44.7833823" id="Fill-1" fill="#0176A4"></path>
                <mask id="mask-2" fill="white">
                    <use xlink:href="#path-1"></use>
                </mask>
                <g id="Clip-4"></g>
                <polygon id="Fill-3" fill="#A9A9A9" mask="url(#mask-2)" points="12.8567984 38.323363 14.7225102 38.323363 14.7225102 36.4576512 12.8567984 36.4576512"></polygon>
                <path d="M15.9132061,48.0907749 L15.9132061,48.9140102 C15.9132061,49.4970065 15.8872677,50.6438542 15.8409492,52.3564059 C15.8113053,53.6687653 15.7717801,54.8162305 15.7236088,55.7975665 C15.6575277,57.0852226 15.5914465,57.8917832 15.5284533,58.2191011 C15.46546,58.5482717 15.3703526,58.8193897 15.2425133,59.0429539 C15.1640805,59.1775866 15.0689731,59.2930742 14.9608964,59.3918871 C14.8027957,59.5154033 14.6113457,59.6179217 14.3834583,59.6938842 C14.1561886,59.7704642 13.9079211,59.8056663 13.6343327,59.8056663 C13.1137121,59.8056663 12.5399795,59.7012951 11.9174579,59.4882297 L12.0082423,60.2719399 L12.0990267,61.4434908 C12.6672011,61.5577432 13.1810284,61.6349408 13.6343327,61.674466 C14.0882547,61.7121384 14.4791834,61.7331362 14.8071188,61.7331362 C15.3339153,61.7331362 15.7927779,61.6849649 16.1861769,61.5886223 C16.4665586,61.5163653 16.7234722,61.4058183 16.9587705,61.2600692 C17.1780117,61.1279069 17.3583454,60.9809227 17.5028593,60.815411 C17.6442853,60.6529873 17.756685,60.4640075 17.8499397,60.2527949 C17.958634,60.009468 18.0401546,59.6741216 18.0951193,59.2362567 C18.1371148,58.89844 18.1791103,57.8837547 18.2217234,56.1959062 L18.3489451,52.1377823 L18.5311314,48.0907749 C18.0222448,48.1012738 17.5911733,48.1086847 17.2391523,48.1086847 C16.9062762,48.1086847 16.4647058,48.1012738 15.9132061,48.0907749" id="Fill-5" fill="#0176A4" mask="url(#mask-2)"></path>
                <polygon id="Fill-6" fill="#A9A9A9" mask="url(#mask-2)" points="29.1133795 35.5251041 29.3276801 35.5251041 29.3276801 33.8372556 29.1133795 33.8372556"></polygon>
                <polygon id="Fill-7" fill="#A9A9A9" mask="url(#mask-2)" points="32.3297407 35.5250423 32.3297407 33.8371938 32.3297407 24.864979 30.2521986 24.864979 30.2521986 33.8371938 29.3276801 33.8371938 29.3276801 35.5250423"></polygon>
                <polygon id="Fill-9" fill="#A9A9A9" mask="url(#mask-2)" points="10.1907018 38.3227454 12.0576488 38.3227454 12.0576488 36.4570336 10.1907018 36.4570336"></polygon>
                <polygon id="Fill-10" fill="#A9A9A9" mask="url(#mask-2)" points="33.4129775 35.5251041 35.4911371 35.5251041 35.4911371 24.8650408 33.4129775 24.8650408"></polygon>
                <path d="M21.0076307,44.7833823 L21.0076307,45.0730277 C21.0076307,45.4065214 20.9958967,45.8857642 20.971811,46.5095208 C21.4806976,46.4965516 21.9278262,46.4922286 22.315667,46.4922286 C22.7035077,46.4922286 23.1284034,46.4965516 23.5878835,46.5095208 L23.6348197,45.3021503 C23.6391428,45.1057595 23.6508768,44.9353072 23.6700218,44.7833823 C23.263036,44.7938812 22.8251712,44.8012922 22.3527218,44.8012922 C22.0062589,44.8012922 21.559748,44.7938812 21.0076307,44.7833823" id="Fill-11" fill="#0176A4" mask="url(#mask-2)"></path>
                <path d="M32.2471084,48.1034353 C31.6900504,47.9490401 31.0786454,47.8693721 30.411658,47.8693721 C29.8255738,47.8693721 29.2154039,47.9095149 28.5848538,47.9885653 C27.9561565,48.0676156 27.2298814,48.2053361 26.4066461,48.3992565 C26.3516814,48.7537479 26.3133914,49.021778 26.2930112,49.197171 C26.2707783,49.372564 26.2176664,49.6807368 26.1349105,50.1142786 C27.4682676,49.5887173 28.6855195,49.3243927 29.7897541,49.3243927 C30.0849577,49.3243927 30.3560757,49.3571244 30.6024905,49.4201177 C30.846435,49.4843461 31.0471487,49.5955107 31.2027791,49.7616399 C31.3565567,49.9240637 31.4325192,50.1229247 31.4325192,50.3606934 C31.4325192,50.4811216 31.4084335,50.6003147 31.3565567,50.7151848 C31.30468,50.8288196 31.2243944,50.9418369 31.1157002,51.0455905 C31.0063884,51.1518144 30.8785492,51.2376582 30.7297122,51.3043569 C30.5808752,51.3704381 30.3813966,51.4389895 30.1325115,51.5081586 C29.8854791,51.5791804 29.6464753,51.6403209 29.4155001,51.6854043 C28.5490341,51.8731489 27.8524029,52.0590407 27.3256064,52.244315 C26.7975748,52.4277365 26.3949121,52.6210393 26.1157655,52.81743 C25.836619,53.0125856 25.6093492,53.2188576 25.4339563,53.4294527 C25.2591809,53.6431356 25.1251658,53.8778164 25.0343814,54.1316421 C24.9448322,54.3823799 24.8972785,54.6423815 24.8972785,54.9017654 C24.8972785,55.3569225 25.0140013,55.8065214 25.248682,56.2561203 C25.4808924,56.704484 25.8434124,57.0311843 26.3325364,57.2356035 C26.8247484,57.4418755 27.4509754,57.5462467 28.2149229,57.5462467 C28.4310762,57.5462467 28.6669921,57.5351303 28.9232881,57.5172204 C29.1771139,57.4999281 29.5186361,57.4548447 29.94909,57.3832054 C30.1176895,56.6964554 30.2665265,56.1832457 30.3931306,55.8367829 C30.0306106,55.9596815 29.7415828,56.0356439 29.5260471,56.066523 C29.3111289,56.0936965 29.1073272,56.1097536 28.9134068,56.1097536 C28.6107922,56.1097536 28.3464676,56.0739339 28.1222858,56.001677 C27.8987215,55.9288024 27.7128296,55.799728 27.5646102,55.6156889 C27.4157733,55.4304147 27.3422811,55.211791 27.3422811,54.9579653 C27.3422811,54.7973943 27.3706898,54.6528804 27.4268897,54.5157774 C27.4855599,54.3780569 27.5775794,54.2483649 27.7048011,54.1260839 C27.8320228,54.0013325 27.9888883,53.890168 28.1741626,53.7882672 C28.3582017,53.6888366 28.5657088,53.599905 28.7960665,53.5214722 C29.0258066,53.4430394 29.3327443,53.3510199 29.7150268,53.2441784 C30.0966918,53.1379545 30.3634867,53.0582866 30.5154116,53.0070274 C30.6654838,52.9563857 30.8025867,52.901421 30.923015,52.8396629 C31.045296,52.77914 31.2200714,52.6710634 31.4510466,52.5216088 L31.3312359,54.7819548 C31.282447,55.7453809 31.2194538,56.5951722 31.1391683,57.3276231 C31.6350857,57.3146539 32.0698626,57.3084781 32.439176,57.3084781 C32.8263992,57.3084781 33.2512948,57.3146539 33.7113926,57.3276231 C33.7280673,55.8201082 33.7867375,54.3595295 33.8818449,52.9440341 C33.9800403,51.5310091 34.0282116,50.6515739 34.0282116,50.3051111 C34.0282116,49.6696204 33.8694933,49.1811139 33.5551446,48.8426796 C33.240796,48.5054804 32.8047839,48.2559778 32.2471084,48.1034353" id="Fill-12" fill="#0176A4" mask="url(#mask-2)"></path>
                <path d="M25.4440846,30.9315376 C25.4854625,30.4936728 25.7114971,30.2602272 26.1191005,30.2305833 L26.5551126,30.2305833 L26.5551126,34.6629612 C26.5859916,35.1354105 26.3642801,35.3849132 25.8961538,35.4083813 L25.4440846,35.4083813 L25.4440846,30.9315376 Z M23.3566613,35.5251041 L23.3566613,37.2129526 L25.0895932,37.2129526 C26.8200548,37.2833568 27.9205839,36.7213582 28.3930332,35.5251041 L29.1131325,35.5251041 L29.1131325,33.8372556 L28.6697094,33.8372556 L28.6697094,33.7118867 L28.6697094,28.4186011 L26.7058023,28.4186011 C24.5380935,28.4704779 23.4227424,29.4925742 23.3566613,31.4836549 L23.3566613,33.8372556 L22.931148,33.8372556 L22.931148,35.5251041 L23.3566613,35.5251041 Z" id="Fill-13" fill="#A9A9A9" mask="url(#mask-2)"></path>
                <polygon id="Fill-14" fill="#A9A9A9" mask="url(#mask-2)" points="22.6998023 35.5251041 22.9307775 35.5251041 22.9307775 33.8372556 22.6998023 33.8372556"></polygon>
                <path d="M20.9274069,48.0907749 C20.9094971,49.2265061 20.8755301,50.4295536 20.8304467,51.696212 C20.7841282,52.9591648 20.7303986,54.0776038 20.668023,55.0472057 C20.6315857,55.659846 20.5667397,56.4188528 20.4741026,57.3273143 C21.111446,57.3149627 21.5869833,57.3087869 21.901332,57.3087869 C22.2360608,57.3087869 22.6782487,57.3149627 23.230366,57.3273143 C23.230366,56.6078326 23.2421,55.6289669 23.2655681,54.3931876 C23.287801,53.1574083 23.3248558,52.0624374 23.3754975,51.1064222 C23.4242864,50.1473192 23.4903675,49.1431327 23.5725058,48.0907749 C22.9641886,48.1012738 22.5250886,48.1086847 22.2539706,48.1086847 C21.9581494,48.1086847 21.5171967,48.1012738 20.9274069,48.0907749" id="Fill-15" fill="#0176A4" mask="url(#mask-2)"></path>
                <polygon id="Fill-16" fill="#A9A9A9" mask="url(#mask-2)" points="22.6999258 33.8369468 21.7933171 33.8369468 21.7933171 24.8653496 19.7145399 24.8653496 19.7145399 33.8369468 19.7145399 35.5247953 22.6999258 35.5247953"></polygon>
                <polygon id="Fill-17" fill="#A9A9A9" mask="url(#mask-2)" points="75.3963717 33.8369468 74.8010238 33.8369468 74.8010238 24.8653496 72.7234817 24.8653496 72.7234817 33.8369468 70.7144912 33.8369468 70.7144912 28.4189099 68.635714 28.4189099 68.635714 33.8369468 66.5217347 33.8369468 66.5217347 35.5247953 75.3963717 35.5247953"></polygon>
                <path d="M43.0113575,52.458492 C42.9446588,53.1013937 42.8341118,53.615221 42.6784815,54.0049145 C42.5247038,54.3909026 42.3363417,54.7052512 42.1115422,54.9529011 C41.8867428,55.1974632 41.6384753,55.3771792 41.3667397,55.4969899 C41.0943865,55.6155654 40.7917719,55.6748532 40.4576607,55.6748532 C40.0167079,55.6748532 39.6189859,55.5618359 39.2675823,55.3388892 C38.917414,55.1159425 38.65803,54.8077696 38.4906656,54.4217816 C38.3251539,54.0327057 38.2417805,53.6047221 38.2417805,53.1403013 C38.2417805,52.6715574 38.3331825,52.1892268 38.5147513,51.6852808 C38.6975552,51.1850403 38.955704,50.7706435 39.2910504,50.4495015 C39.6270144,50.1295946 40.0130025,49.90356 40.4496321,49.7689274 C40.8856442,49.6367651 41.3432716,49.5700663 41.8212792,49.5700663 C42.2387639,49.5700663 42.674776,49.6312068 43.1299331,49.7534878 C43.0928782,51.0831394 43.0521179,51.9854251 43.0113575,52.458492 M43.2898865,44.9289461 L43.2898865,45.5459094 C43.2898865,46.412993 43.2682712,47.2386986 43.2238054,48.0273493 C42.525939,47.9229782 41.9027999,47.8692486 41.3531529,47.8692486 C40.589823,47.8692486 39.8765171,47.9686791 39.2113825,48.161982 C38.5462479,48.3546672 37.9496648,48.6863081 37.4234859,49.1531992 C36.8966894,49.6182376 36.4822927,50.2296427 36.1802956,50.9812386 C35.877681,51.7359224 35.7251385,52.5091337 35.7251385,53.3027251 C35.7251385,53.8776929 35.8103647,54.4316629 35.9789642,54.9603121 C36.1500341,55.4914317 36.4118884,55.9490591 36.7707029,56.3325768 C37.1276647,56.7173297 37.5605888,57.0168564 38.0694755,57.2274515 C38.5777445,57.4392817 39.1224508,57.5461232 39.7048296,57.5461232 C40.0556155,57.5461232 40.3940498,57.5047453 40.7219853,57.4269301 C41.0474504,57.3478797 41.3513002,57.2274515 41.6341522,57.0681156 C41.9145339,56.9081622 42.151685,56.7352395 42.3425175,56.5456422 C42.53335,56.3578976 42.7618549,56.0917203 43.0280322,55.7452574 L42.9471291,57.3274996 C43.480719,57.3145304 43.8982037,57.3089721 44.2014359,57.3089721 C44.4799648,57.3089721 44.8708935,57.3145304 45.3736044,57.3274996 C45.3736044,55.8977999 45.4322745,53.859783 45.5508501,51.2103611 C45.6681904,48.5609392 45.7929418,46.4667225 45.9269568,44.9289461 C45.43598,44.9412978 44.9931745,44.9462384 44.5997755,44.9462384 C44.2959257,44.9462384 43.8599137,44.9412978 43.2898865,44.9289461" id="Fill-18" fill="#0176A4" mask="url(#mask-2)"></path>
                <polygon id="Fill-19" fill="#A9A9A9" mask="url(#mask-2)" points="78.6133504 35.5250423 78.6133504 33.8371938 78.6133504 24.864979 76.5339557 24.864979 76.5339557 33.8371938 75.8854958 33.8371938 75.8854958 35.5250423"></polygon>
                <polygon id="Fill-20" fill="#A9A9A9" mask="url(#mask-2)" points="75.3961247 35.5251041 75.8852487 35.5251041 75.8852487 33.8372556 75.3961247 33.8372556"></polygon>
                <polygon id="Fill-21" fill="#0176A4" mask="url(#mask-2)" points="124.277033 36.3588382 127.371113 36.3588382 127.371113 20.4950386 124.277033 20.4950386"></polygon>
                <path d="M127.079553,18.0223065 L125.518926,18.0223065 L125.518926,17.2546535 C125.501634,17.0181201 125.615886,16.9020149 125.862918,16.9112786 L127.079553,16.9112786 L127.079553,15.8663317 L125.3213,15.8663317 C124.968044,16.1942672 124.774123,16.5117038 124.738304,16.8198766 L124.738304,18.0223065 L124.356021,18.0223065 L124.356021,19.0258755 L127.079553,19.0258755 L127.079553,18.0223065 Z" id="Fill-22" fill="#0176A4" mask="url(#mask-2)"></path>
                <path d="M70.4665942,26.409734 L69.4173243,26.409734 L69.4173243,25.8952892 C69.4055903,25.7353357 69.4827879,25.6587557 69.6482996,25.6630788 L70.4665942,25.6630788 L70.4665942,24.9608893 L69.2857796,24.9608893 C69.048011,25.1819833 68.9177014,25.3938135 68.8936158,25.6013207 L68.8936158,26.409734 L68.635467,26.409734 L68.635467,27.0853675 L70.4665942,27.0853675 L70.4665942,26.409734 Z" id="Fill-23" fill="#A9A9A9" mask="url(#mask-2)"></path>
                <path d="M63.4651417,30.1676518 L63.4651417,33.8366997 C62.5066562,33.949717 61.8637545,33.5130874 61.538907,32.5224877 C61.2949626,31.0174431 61.9378642,30.2324978 63.4651417,30.1676518 M63.4651417,35.5251658 C63.5905106,36.0513447 63.3854738,36.3391374 62.8518839,36.3860736 L60.0017482,36.3860736 L60.0017482,38.1881745 L62.6048516,38.1881745 C63.6294182,38.2425216 64.4044822,37.9701685 64.9325139,37.371115 C65.2703306,36.8980481 65.4290489,36.2817024 65.4123742,35.5251658 L65.4123742,33.8366997 L65.4123742,28.4186628 L64.7108023,28.4186628 C61.9730663,28.4427485 60.3790901,29.1572895 59.9264034,30.562286 C59.4737166,31.9691352 59.5854987,33.1678597 60.2642201,34.1566066 C60.9423239,35.1459712 62.0082685,35.6017459 63.4651417,35.5251658" id="Fill-24" fill="#A9A9A9" mask="url(#mask-2)"></path>
                <polygon id="Fill-25" fill="#A9A9A9" mask="url(#mask-2)" points="10.0678033 35.5251041 10.3605366 35.5251041 10.3605366 33.8372556 10.0678033 33.8372556"></polygon>
                <polygon id="Fill-26" fill="#A9A9A9" mask="url(#mask-2)" points="15.4148184 35.5251041 15.7260791 35.5251041 15.7260791 33.8372556 15.4148184 33.8372556"></polygon>
                <polygon id="Fill-27" fill="#A9A9A9" mask="url(#mask-2)" points="15.4150037 35.5250423 15.4150037 33.8371938 14.7930997 33.8371938 14.7930997 28.4185393 12.7149401 28.4185393 12.7149401 33.8371938 10.3601043 33.8371938 10.3601043 35.5250423"></polygon>
                <polygon id="Fill-28" fill="#A9A9A9" mask="url(#mask-2)" points="18.6319824 35.5250423 18.6319824 33.8371938 18.6319824 24.864979 16.5532052 24.864979 16.5532052 33.8371938 15.7262644 33.8371938 15.7262644 35.5250423"></polygon>
                <polygon id="Fill-29" fill="#A9A9A9" mask="url(#mask-2)" points="49.2088433 27.085244 51.0739375 27.085244 51.0739375 25.2195322 49.2088433 25.2195322"></polygon>
                <path d="M4.36493803,34.3794916 C4.94422888,32.6027114 5.90024406,31.3768134 7.23421873,30.7011799 L7.23421873,35.5251041 L10.0676797,35.5251041 L10.0676797,33.8372556 L9.31237834,33.8372556 L9.31237834,28.3821638 C8.13959228,28.375988 7.14652225,28.5501458 6.33193309,28.9064899 C5.51796151,29.2628341 4.84788627,29.7266373 4.31985463,30.3016051 C2.94635479,31.8054145 2.2293434,33.5469926 2.17067322,35.5251041 L4.12346392,35.5251041 L4.36493803,34.3794916 Z" id="Fill-30" fill="#A9A9A9" mask="url(#mask-2)"></path>
                <polygon id="Fill-31" fill="#A9A9A9" mask="url(#mask-2)" points="46.5427467 27.085244 48.4078409 27.085244 48.4078409 25.2195322 46.5427467 25.2195322"></polygon>
                <polygon id="Fill-32" fill="#A9A9A9" mask="url(#mask-2)" points="4.31071443 27.085244 6.17580864 27.085244 6.17580864 25.2195322 4.31071443 25.2195322"></polygon>
                <polygon id="Fill-33" fill="#A9A9A9" mask="url(#mask-2)" points="6.97619345 27.085244 8.84128766 27.085244 8.84128766 25.2195322 6.97619345 25.2195322"></polygon>
                <polygon id="Fill-34" fill="#0176A4" mask="url(#mask-2)" points="103.798669 40.5219508 106.574695 40.5219508 106.574695 37.7459249 103.798669 37.7459249"></polygon>
                <polygon id="Fill-35" fill="#0176A4" mask="url(#mask-2)" points="103.614012 36.3588382 103.996295 36.3588382 103.996295 33.8459017 103.614012 33.8459017"></polygon>
                <path d="M108.839796,49.4387069 C108.822504,50.4323945 108.794095,51.482282 108.752717,52.585899 C108.713809,53.6919863 108.666873,54.6652937 108.613761,55.5119971 C108.581647,56.045587 108.524212,56.7094864 108.443927,57.5024602 C108.999749,57.4919614 109.415381,57.4845504 109.69144,57.4845504 C109.982321,57.4845504 110.367691,57.4919614 110.849404,57.5024602 C110.849404,56.8743805 110.859285,56.0202662 110.880283,54.9388821 C110.901898,53.8612035 110.933395,52.9064234 110.976008,52.0720717 C111.019856,51.2358672 111.076674,50.3582848 111.147696,49.4387069 C110.616576,49.4510585 110.234294,49.4553816 109.996525,49.4553816 C109.739611,49.4553816 109.353623,49.4510585 108.839796,49.4387069" id="Fill-36" fill="#A9A9A9" mask="url(#mask-2)"></path>
                <polygon id="Fill-37" fill="#0176A4" mask="url(#mask-2)" points="110.647332 33.8457164 110.647332 25.7825807 107.552016 25.7825807 107.552016 33.8457164 103.995986 33.8457164 103.995986 36.358653 111.425484 36.358653 111.425484 33.8457164"></polygon>
                <polygon id="Fill-38" fill="#0176A4" mask="url(#mask-2)" points="102.30332 33.8457164 102.30332 20.4948533 99.2098575 20.4948533 99.2098575 33.8457164 99.2098575 36.358653 103.613827 36.358653 103.613827 33.8457164"></polygon>
                <path d="M108.911003,46.5522574 L108.911003,46.8067008 C108.911003,47.0963462 108.899269,47.5138308 108.879506,48.0597723 C109.322312,48.0474207 109.713241,48.0430976 110.05291,48.0430976 C110.389492,48.0430976 110.76004,48.0474207 111.162703,48.0597723 L111.200993,47.0024739 C111.206551,46.8344919 111.216432,46.6844197 111.233725,46.5522574 C110.879851,46.5627563 110.497568,46.5670794 110.083789,46.5670794 C109.783027,46.5670794 109.389628,46.5627563 108.911003,46.5522574" id="Fill-39" fill="#A9A9A9" mask="url(#mask-2)"></path>
                <polygon id="Fill-40" fill="#0176A4" mask="url(#mask-2)" points="107.764773 40.5219508 110.540799 40.5219508 110.540799 37.7459249 107.764773 37.7459249"></polygon>
                <path d="M122.54478,33.8457164 L122.54478,29.6029359 C122.076654,27.2598341 120.547523,26.0234372 117.957389,25.899921 L113.090852,25.899921 L113.090852,28.4270619 L117.758528,28.4270619 C118.860293,28.7179425 119.379678,29.3429343 119.319155,30.3038902 L119.319155,33.8457164 L112.034171,33.8457164 L112.034171,36.358653 L122.54478,36.358653 L122.54478,33.8457164 Z" id="Fill-41" fill="#0176A4" mask="url(#mask-2)"></path>
                <path d="M114.851575,52.4988818 C114.903452,52.248144 114.956564,52.0443423 115.010293,51.8942702 C115.06217,51.7460507 115.143073,51.5891852 115.250532,51.423056 C115.359227,51.2643377 115.500653,51.1142655 115.67481,50.9833384 C115.850203,50.8517937 116.041036,50.7523631 116.249778,50.6838117 C116.459138,50.6146426 116.674056,50.5794405 116.897003,50.5794405 C117.087218,50.5794405 117.266316,50.6004382 117.431828,50.6436689 C117.597957,50.686282 117.746177,50.7474225 117.872781,50.8233849 C118.000002,50.9024353 118.108079,51.0018658 118.204422,51.1210589 C118.299529,51.2377817 118.375492,51.3755022 118.430456,51.5311326 C118.485421,51.6879981 118.521858,51.8251011 118.537298,51.9449118 C118.553355,52.0671928 118.560148,52.2530846 118.560148,52.5069104 L114.851575,52.4988818 Z M119.652031,50.1125494 C119.321625,49.8043765 118.914022,49.5851353 118.426751,49.4505027 C117.941332,49.3164876 117.427505,49.2473186 116.888357,49.2473186 C116.317712,49.2473186 115.770535,49.3288392 115.247444,49.4894103 C114.724353,49.6499813 114.257462,49.9266575 113.848006,50.3126456 C113.437315,50.7017215 113.119261,51.1994917 112.891991,51.8108967 C112.665956,52.4210666 112.551086,53.0509991 112.551086,53.7013118 C112.551086,54.2867784 112.649899,54.8450715 112.844437,55.3798966 C113.038975,55.9134864 113.344678,56.3643205 113.756604,56.7299283 C114.169766,57.0980065 114.649009,57.3481268 115.195568,57.4877 C115.743362,57.624803 116.362178,57.6933545 117.055104,57.6933545 C117.450355,57.6933545 117.846225,57.670504 118.235918,57.6297436 C118.627465,57.5858954 119.10856,57.5043747 119.68044,57.3833289 C119.805809,56.5749155 119.904004,56.0153873 119.973173,55.7022738 C119.386471,55.8931063 118.87882,56.024651 118.453307,56.1061717 C118.029029,56.1858396 117.633159,56.2265999 117.268787,56.2265999 C116.956908,56.2265999 116.640707,56.1784286 116.317712,56.0789981 C115.99657,55.9832731 115.718041,55.8294954 115.483978,55.6207531 C115.252385,55.4181866 115.074522,55.165596 114.952241,54.8716275 C114.833665,54.5733359 114.770672,54.2484884 114.770672,53.8946146 C114.770672,53.7778918 114.77623,53.622879 114.787347,53.4277234 L120.5994,53.4190773 C120.652512,53.1547527 120.678451,52.8978391 120.678451,52.6526595 C120.678451,52.1233927 120.588901,51.6447675 120.412891,51.2149312 C120.23441,50.7857125 119.982437,50.4163991 119.652031,50.1125494 L119.652031,50.1125494 Z" id="Fill-42" fill="#A9A9A9" mask="url(#mask-2)"></path>
                <path d="M124.949393,50.8692712 C125.177898,50.8081307 125.446545,50.7791044 125.752866,50.7791044 C126.319805,50.7791044 126.907124,50.9026206 127.520382,51.1515057 L127.419716,49.493301 C126.513725,49.3290245 125.715811,49.2475038 125.024738,49.2475038 C124.417038,49.2475038 123.887771,49.3290245 123.438172,49.4895955 C122.989191,49.6514017 122.646434,49.9052275 122.411135,50.2541607 C122.175837,50.6055642 122.058497,50.971172 122.058497,51.3583952 C122.058497,51.5788716 122.096787,51.7974952 122.172749,52.0111782 C122.250564,52.2248612 122.362347,52.4274277 122.509948,52.6213481 C122.65755,52.8146509 122.840354,53.0048658 123.057743,53.1882873 C123.275131,53.3735616 123.588862,53.6286225 124.001406,53.9509997 L124.42939,54.2912868 C124.576374,54.4036865 124.690009,54.4920005 124.770294,54.5630223 C124.848727,54.637132 124.909868,54.7013605 124.955569,54.7538548 C125.001887,54.8100547 125.040795,54.8711952 125.076614,54.934806 C125.109346,54.9990344 125.132197,55.057087 125.146401,55.1157572 C125.15937,55.1744274 125.166781,55.2368031 125.166781,55.3059721 C125.166781,55.4585146 125.115522,55.6061164 125.014856,55.7456897 C124.914808,55.885263 124.762266,55.9933396 124.556611,56.0637438 C124.349104,56.1347656 124.095896,56.1705853 123.793899,56.1705853 C123.494372,56.1705853 123.162731,56.1292074 122.803299,56.045834 C122.44325,55.9643133 122.004767,55.8167115 121.486617,55.6079692 L121.66201,57.3520175 C122.181395,57.4792392 122.666814,57.5663181 123.121353,57.6169597 C123.574658,57.6676014 123.961263,57.6935397 124.279318,57.6935397 C124.885164,57.6935397 125.434811,57.5965796 125.928258,57.4063646 C126.419853,57.2149146 126.787931,56.9542955 127.028788,56.614626 C127.27335,56.2743389 127.393778,55.9081135 127.393778,55.5122441 C127.393778,55.2757107 127.351782,55.0391772 127.268409,54.8075844 C127.182565,54.5735212 127.060902,54.3555152 126.902184,54.1510959 C126.742848,53.9485294 126.542134,53.7447277 126.295719,53.5440139 C126.049922,53.346388 125.763982,53.1215886 125.434811,52.8727035 C125.108111,52.6238184 124.891958,52.4583068 124.790057,52.3718454 C124.685686,52.2878544 124.594284,52.1983052 124.515851,52.1025802 C124.436801,52.0087079 124.380601,51.9166883 124.349104,51.8277567 C124.317608,51.741913 124.302168,51.6523637 124.302168,51.5628145 C124.302168,51.4084193 124.35281,51.2706988 124.45224,51.1459474 C124.552288,51.0249016 124.718418,50.9310293 124.949393,50.8692712" id="Fill-43" fill="#A9A9A9" mask="url(#mask-2)"></path>
                <polygon id="Fill-44" fill="#0176A4" mask="url(#mask-2)" points="115.577788 40.5219508 118.353197 40.5219508 118.353197 37.7459249 115.577788 37.7459249"></polygon>
                <polygon id="Fill-45" fill="#0176A4" mask="url(#mask-2)" points="111.425175 36.3588382 112.034109 36.3588382 112.034109 33.8459017 111.425175 33.8459017"></polygon>
                <path d="M105.510665,47.5111752 C104.948666,47.6488958 104.571324,47.7365923 104.373698,47.7736471 L103.437446,47.9552159 C103.406567,48.6907547 103.37507,49.2119929 103.342956,49.5164603 L102.148554,49.5164603 C102.126939,50.2211201 102.103471,50.732477 102.076915,51.0480609 L103.218204,51.0480609 L103.037871,54.3447075 C102.998963,54.9808158 102.979201,55.3569225 102.974878,55.471175 C102.966849,55.5885154 102.965614,55.6792998 102.965614,55.7478512 C102.965614,56.0202044 103.001434,56.2789708 103.072455,56.5309438 C103.144712,56.7829168 103.279962,57.002158 103.480676,57.1899026 C103.680772,57.3776471 103.936451,57.5079567 104.245241,57.5814488 C104.554649,57.6549409 104.905435,57.693231 105.296364,57.693231 C105.519311,57.693231 105.755227,57.6814969 106.010287,57.6524706 C106.264113,57.6246795 106.613664,57.5629214 107.055852,57.4622557 C107.194808,56.6766929 107.295473,56.1350744 107.358466,55.8448114 C106.992241,55.9386837 106.738415,55.9973539 106.593284,56.0202044 C106.447535,56.0412021 106.308579,56.051701 106.175182,56.051701 C105.997318,56.051701 105.828719,56.0127934 105.669383,55.9312728 C105.510665,55.8522224 105.395177,55.7250007 105.323538,55.5452847 C105.253133,55.3643335 105.216078,55.1105078 105.216078,54.7819548 C105.216078,54.4447556 105.271661,53.1984774 105.383443,51.0480609 L107.405403,51.0480609 C107.405403,50.7417407 107.42393,50.2310014 107.45975,49.5164603 L105.446436,49.5164603 C105.450142,48.8939388 105.472375,48.2257163 105.510665,47.5111752" id="Fill-46" fill="#A9A9A9" mask="url(#mask-2)"></path>
                <path d="M62.7733276,53.744913 C62.6948949,53.5794013 62.5843479,53.408949 62.4466274,53.2279978 C62.3058189,53.0482818 62.1384545,52.8623899 61.943299,52.664764 C61.7475258,52.4689909 61.5270494,52.267042 61.2775468,52.0620051 L60.3005339,51.1745414 C60.1381101,51.0572011 59.9441897,50.9077465 59.7175375,50.7193843 C59.4921205,50.5310222 59.3179627,50.3661281 59.2012399,50.2265548 C59.0820468,50.0894518 59.0011437,49.9745818 58.9554427,49.8856502 C58.9085066,49.7991888 58.8751572,49.7077869 58.8510716,49.6157673 C58.8282211,49.5243653 58.8171046,49.4348161 58.8171046,49.3520603 C58.8171046,49.0389468 58.9819987,48.7672112 59.3117869,48.5306777 C59.6428102,48.2947618 60.064618,48.1774215 60.5809156,48.1774215 C61.2775468,48.1774215 62.0384064,48.3367573 62.8610241,48.6529587 C62.7825913,47.9458287 62.7288618,47.3152786 62.7016883,46.7656316 C61.7561719,46.5797398 60.9063807,46.489573 60.148609,46.489573 C59.3080814,46.489573 58.6133029,46.6130892 58.0593329,46.8576512 C57.5084508,47.1046835 57.0928188,47.4449706 56.8149075,47.8803651 C56.5376136,48.3176123 56.3986579,48.7826507 56.3986579,49.2804209 C56.3986579,49.5496862 56.4350952,49.8041295 56.5092049,50.0412805 C56.5845498,50.2796667 56.7049781,50.518053 56.8748128,50.7576743 C57.04403,51.0003836 57.2855041,51.2684137 57.6035582,51.5704108 C57.7437491,51.7081313 58.0000451,51.9397241 58.3687409,52.2608662 C59.1456576,52.9260007 59.6835706,53.4046259 59.9855676,53.6967417 C60.2214835,53.9073367 60.3900831,54.1111384 60.4932191,54.3069116 C60.5599178,54.4495727 60.5932672,54.6113789 60.5932672,54.7898598 C60.5932672,55.0214526 60.5222454,55.2326653 60.3826721,55.4204099 C60.2437164,55.6081544 60.0263279,55.7532859 59.732977,55.8551868 C59.4408613,55.959558 59.1240423,56.0126699 58.785608,56.0126699 C57.9395222,56.0126699 56.998329,55.776754 55.9620283,55.3055398 C56.0305798,55.8119561 56.086162,56.4702973 56.1293927,57.2706821 C56.8636963,57.4361938 57.4571916,57.5479759 57.9061728,57.6066461 C58.353919,57.662846 58.7479356,57.693725 59.0869875,57.693725 C59.598962,57.693725 60.0849981,57.6443186 60.546331,57.5461232 C61.0064288,57.4497806 61.4282365,57.2706821 61.8142246,57.0193267 C62.199595,56.7648834 62.4966514,56.4394183 62.7016883,56.0460193 C62.9091954,55.6538554 63.0117138,55.234518 63.0117138,54.7898598 C63.0117138,54.5990273 62.9925688,54.4180761 62.9530437,54.2482414 C62.9122833,54.0759363 62.8542307,53.9073367 62.7733276,53.744913" id="Fill-47" fill="#A9A9A9" mask="url(#mask-2)"></path>
                <path d="M49.4664363,30.3187739 L49.4664363,33.5715723 C48.204101,33.1849667 47.4907951,32.4691904 47.3252834,31.4205381 C47.3963052,30.5966853 48.0317959,30.2304598 49.2360786,30.3187739 L49.4664363,30.3187739 Z M45.4861276,30.3447123 C45.1365768,31.3458108 45.1977173,32.2375976 45.672637,33.019455 L45.646081,33.0101913 C46.4680812,34.3132869 47.7217703,35.150109 49.4046782,35.5249806 C49.3145114,36.0332496 49.002633,36.3198071 48.4702783,36.3865059 L45.5738241,36.3865059 C44.8463138,36.3741542 44.4695895,35.9301136 44.4461214,35.0543839 L44.4461214,31.0814862 L42.323496,31.0814862 L42.323496,34.3873966 C42.3062037,35.7491624 42.5093878,36.7218523 42.9361362,37.3067013 C43.362267,37.8896977 44.1737683,38.1842838 45.3700224,38.1886068 L48.3374984,38.1886068 C49.3089531,38.2478946 50.06796,38.0570621 50.6157543,37.6130215 C51.1641661,37.1683632 51.4612225,36.4729672 51.5100113,35.5249806 L51.5100113,33.837132 L51.5100113,28.4184775 L48.8173588,28.4184775 C47.1116004,28.3468382 46.0005724,28.9897398 45.4861276,30.3447123 L45.4861276,30.3447123 Z" id="Fill-48" fill="#A9A9A9" mask="url(#mask-2)"></path>
                <path d="M66.6669897,52.4988818 C66.7188665,52.248144 66.7732136,52.0443423 66.8263256,51.8942702 C66.8775848,51.7460507 66.959723,51.5891852 67.0684173,51.423056 C67.1746412,51.2643377 67.3166848,51.1142655 67.4908426,50.9833384 C67.6662355,50.8517937 67.857068,50.7523631 68.0658104,50.6838117 C68.2745527,50.6146426 68.4900884,50.5794405 68.7124175,50.5794405 C68.90325,50.5794405 69.0817309,50.6004382 69.246625,50.6436689 C69.4139894,50.686282 69.5615912,50.7474225 69.6881953,50.8233849 C69.815417,50.9024353 69.9247288,51.0018658 70.0204538,51.1210589 C70.1161788,51.2377817 70.1909061,51.3755022 70.2458708,51.5311326 C70.3026883,51.6879981 70.3378904,51.8251011 70.3539475,51.9449118 C70.3706222,52.0671928 70.3780331,52.2530846 70.3780331,52.5069104 L66.6669897,52.4988818 Z M71.4674458,50.1125494 C71.1358048,49.8043765 70.7288191,49.5851353 70.2434005,49.4505027 C69.7567468,49.3164876 69.2435371,49.2473186 68.704389,49.2473186 C68.1343618,49.2473186 67.58595,49.3288392 67.0634766,49.4894103 C66.5397681,49.6499813 66.0728769,49.9266575 65.6640384,50.3126456 C65.2539647,50.7017215 64.9359105,51.1994917 64.7092584,51.8108967 C64.481371,52.4210666 64.3671186,53.0509991 64.3671186,53.7013118 C64.3671186,54.2867784 64.4646963,54.8450715 64.6598519,55.3798966 C64.855625,55.9134864 65.1594748,56.3643205 65.573254,56.7299283 C65.9851804,57.0980065 66.4650408,57.3481268 67.0115998,57.4877 C67.5593941,57.624803 68.1788277,57.6933545 68.8705182,57.6933545 C69.2670051,57.6933545 69.6616393,57.670504 70.0519504,57.6297436 C70.4434967,57.5858954 70.9245922,57.5043747 71.4964721,57.3833289 C71.6236937,56.5749155 71.7200363,56.0153873 71.7885878,55.7022738 C71.2025036,55.8931063 70.6954697,56.024651 70.2718092,56.1061717 C69.8450608,56.1858396 69.4491915,56.2265999 69.0848188,56.2265999 C68.7717053,56.2265999 68.4567391,56.1784286 68.1343618,56.0789981 C67.8119846,55.9832731 67.5334557,55.8294954 67.3018628,55.6207531 C67.0684173,55.4181866 66.8911716,55.165596 66.7707433,54.8716275 C66.6490799,54.5733359 66.5873218,54.2484884 66.5873218,53.8946146 C66.5873218,53.7778918 66.5934976,53.622879 66.6027613,53.4277234 L72.4154324,53.4190773 C72.4691619,53.1547527 72.4957179,52.8978391 72.4957179,52.6526595 C72.4957179,52.1233927 72.4067863,51.6447675 72.2301581,51.2149312 C72.0529124,50.7857125 71.7990867,50.4163991 71.4674458,50.1125494 L71.4674458,50.1125494 Z" id="Fill-49" fill="#A9A9A9" mask="url(#mask-2)"></path>
                <polygon id="Fill-50" fill="#A9A9A9" mask="url(#mask-2)" points="52.5221646 35.5251041 54.6009418 35.5251041 54.6009418 24.8650408 52.5221646 24.8650408"></polygon>
                <path d="M58.6505431,34.3695485 L58.6505431,28.4185393 L56.6532865,28.4185393 L56.6532865,34.3436101 C56.6576096,35.694877 56.1734262,36.3711281 55.1964133,36.3773039 L55.1964133,38.1886686 C57.4518186,38.291187 58.6029893,37.0171177 58.6505431,34.3695485" id="Fill-51" fill="#A9A9A9" mask="url(#mask-2)"></path>
                <path d="M98.476048,49.4387069 C98.4593733,50.4323945 98.4321997,51.482282 98.3902042,52.585899 C98.350679,53.6919863 98.3037429,54.6652937 98.2500134,55.5119971 C98.2178992,56.045587 98.1616993,56.7094864 98.0814138,57.5024602 C98.636619,57.4919614 99.0516333,57.4845504 99.3270744,57.4845504 C99.6191901,57.4845504 100.005178,57.4919614 100.485656,57.5024602 C100.485656,56.8743805 100.495537,56.0202662 100.517153,54.9388821 C100.53815,53.8612035 100.569647,52.9064234 100.612878,52.0720717 C100.655491,51.2358672 100.712926,50.3582848 100.785183,49.4387069 C100.254681,49.4510585 99.8717807,49.4553816 99.6333945,49.4553816 C99.3770984,49.4553816 98.9904928,49.4510585 98.476048,49.4387069" id="Fill-52" fill="#A9A9A9" mask="url(#mask-2)"></path>
                <path d="M76.3673941,51.6400739 C76.5965166,51.3751317 76.8694873,51.1855344 77.1887767,51.0626358 C77.5086835,50.9415899 77.8471179,50.8829197 78.2071675,50.8829197 C78.7932517,50.8829197 79.4781489,51.0144645 80.2655645,51.2862 L80.146989,49.5495626 C79.6486012,49.4278992 79.2169122,49.3469961 78.8531571,49.3080885 C78.489402,49.2679458 78.1349105,49.2475656 77.7903004,49.2475656 C77.172102,49.2475656 76.6113385,49.3185874 76.1061574,49.4587783 C75.6022114,49.5971164 75.1421137,49.8626761 74.7314224,50.2523697 C74.3182608,50.640828 74.0039121,51.1416861 73.7908467,51.7543263 C73.5765462,52.3675841 73.4703223,53.0073979 73.4703223,53.6719149 C73.4703223,54.1746257 73.5345507,54.6637498 73.6642427,55.134964 C73.7939346,55.6080309 73.987855,56.0125464 74.2460038,56.3429522 C74.5047702,56.6764458 74.8061497,56.9457111 75.1470543,57.1495128 C75.487959,57.3520793 75.8560371,57.4941229 76.2531416,57.5731732 C76.6496286,57.6522236 77.0621726,57.6936015 77.4901561,57.6936015 C78.2256949,57.6936015 78.971115,57.6065226 79.7257988,57.4311296 C79.7838514,57.025379 79.8388161,56.6832392 79.8925457,56.406563 C79.9444225,56.1348274 79.9845652,55.8890302 80.0111212,55.6722593 C79.6319266,55.8062744 79.2712593,55.9057049 78.9303547,55.9662278 C78.5913028,56.0286035 78.302275,56.0582474 78.0645063,56.0582474 C77.5790878,56.0582474 77.145546,55.9594344 76.7663513,55.7581031 C76.3871567,55.5580069 76.118509,55.2726845 75.9622611,54.9039887 C75.8078658,54.5383809 75.7306682,54.1029864 75.7306682,53.6002755 C75.7306682,53.2420786 75.7794571,52.8900575 75.8751822,52.5448298 C75.9746127,52.2045428 76.1358013,51.9019282 76.3673941,51.6400739" id="Fill-53" fill="#A9A9A9" mask="url(#mask-2)"></path>
                <path d="M98.5471933,46.5522574 L98.5471933,46.8067008 C98.5471933,47.0963462 98.5348417,47.5138308 98.5156966,48.0597723 C98.9603549,48.0474207 99.3519011,48.0430976 99.6884827,48.0430976 C100.026917,48.0430976 100.397466,48.0474207 100.798276,48.0597723 L100.839036,47.0024739 C100.843977,46.8344919 100.855093,46.6844197 100.870532,46.5522574 C100.516041,46.5627563 100.133141,46.5670794 99.7199793,46.5670794 C99.419835,46.5670794 99.0289063,46.5627563 98.5471933,46.5522574" id="Fill-54" fill="#A9A9A9" mask="url(#mask-2)"></path>
                <path d="M94.199424,26.3506315 C92.8166604,25.6817915 91.3709036,25.3902933 89.8633887,25.4773722 L89.8633887,28.2015214 C93.3273998,28.3065101 95.1128261,30.0128861 95.2184324,33.3181788 L95.2184324,33.8455929 L87.8821893,33.8455929 L87.8821893,36.3585294 L98.0475704,36.3585294 L98.0475704,33.8455929 C98.1179746,32.578317 97.8758829,31.2375489 97.3212953,29.8269942 C96.7648549,28.4176747 95.7248487,27.2597106 94.199424,26.3506315" id="Fill-55" fill="#0176A4" mask="url(#mask-2)"></path>
                <path d="M96.4314847,49.2475656 C96.2048326,49.2475656 95.983121,49.2765919 95.7657326,49.3290863 C95.5495793,49.3803455 95.352571,49.4556904 95.1759429,49.5575912 C94.9986971,49.6601096 94.8375085,49.7786851 94.6954649,49.9182584 C94.5521862,50.0578317 94.3823514,50.2696619 94.1797849,50.5562195 L94.2199277,49.4390157 C93.7752694,49.4507497 93.4189253,49.4556904 93.1484249,49.4556904 C92.916832,49.4556904 92.5543121,49.4507497 92.0621001,49.4390157 C92.072599,49.8602058 92.0787748,50.1121788 92.0787748,50.1906116 C92.0787748,50.6463863 92.072599,51.0978379 92.0621001,51.5462016 L91.9991069,53.7349082 L91.770602,57.5021514 C92.2245239,57.4922701 92.6166877,57.4848592 92.9446232,57.4848592 C93.279352,57.4848592 93.646195,57.4922701 94.0494754,57.5021514 C94.0328007,57.1266623 94.0241545,56.8166367 94.0241545,56.567134 C94.0241545,55.9211444 94.0389765,55.2658911 94.0667676,54.5989038 C94.0957939,53.9362395 94.1303784,53.4631726 94.1711388,53.1883491 C94.2199277,52.8344753 94.2934198,52.5448298 94.3934679,52.3231183 C94.5151313,52.0489124 94.668909,51.8204075 94.8578887,51.6289574 C95.0443981,51.4443007 95.2574635,51.3022571 95.4915267,51.2102376 C95.7262074,51.1163653 95.9973254,51.0731346 96.3054983,51.0731346 C96.5587064,51.0731346 96.8415584,51.113895 97.1534368,51.1997387 C97.1052655,50.4425846 97.082415,49.8200631 97.082415,49.3290863 C96.8594683,49.2765919 96.6426974,49.2475656 96.4314847,49.2475656" id="Fill-56" fill="#A9A9A9" mask="url(#mask-2)"></path>
                <path d="M87.9614867,49.4387069 C87.9454296,50.3230827 87.9151681,51.1895486 87.8707023,52.0467509 C87.8385881,52.7563513 87.8046212,53.254739 87.7681839,53.5437669 C87.719395,53.9587812 87.6508435,54.2823936 87.5612943,54.5133688 C87.440866,54.8345109 87.2901763,55.0889542 87.1154009,55.2810219 C86.9375376,55.4712368 86.7238547,55.6206913 86.4768223,55.7250625 C86.2026164,55.8430204 85.9111182,55.901073 85.6060333,55.901073 C85.2836561,55.901073 84.9810415,55.8343743 84.6994246,55.702212 C84.415955,55.5700497 84.2170939,55.3767469 84.1040766,55.1284794 C83.9898242,54.8765064 83.9336243,54.5615402 83.9336243,54.1798752 C83.9336243,54.0952666 83.938565,53.9550757 83.9447408,53.7654784 C83.9533869,53.5690877 83.9651209,53.3362597 83.9824132,53.0527901 L84.2455026,49.4387069 C83.8175191,49.4510585 83.453764,49.4553816 83.1530021,49.4553816 C82.8670622,49.4553816 82.4742807,49.4510585 81.9734226,49.4387069 C81.9734226,49.7610841 81.9690996,50.0309669 81.9641589,50.2471202 L81.8443482,52.9440959 L81.716509,54.9882885 L81.716509,55.1531826 C81.716509,55.8065832 81.8443482,56.3055885 82.1006443,56.6539041 C82.3563228,57.0022197 82.7027856,57.2628389 83.1425032,57.4357615 C83.5803681,57.6068314 84.0972832,57.6932927 84.6883081,57.6932927 C84.9946282,57.6932927 85.2848912,57.6673543 85.5553917,57.6167127 C85.8283624,57.5660711 86.0704541,57.5049306 86.2804316,57.4271154 C86.4928794,57.3505353 86.6886525,57.2455466 86.8689862,57.1189425 C87.0480846,56.9867802 87.1938337,56.8540003 87.3031455,56.7224556 C87.4149276,56.5872054 87.544002,56.4062542 87.692839,56.1857778 L87.6780171,57.5024602 C88.0763567,57.4919614 88.429613,57.4845504 88.7427265,57.4845504 C88.9897588,57.4845504 89.3473382,57.4919614 89.8129941,57.5024602 C89.8284337,56.6254954 89.8506666,55.8164645 89.8753698,55.0803081 C89.9025434,54.3422989 89.9507147,53.4066639 90.0186486,52.273403 C90.0872,51.1395246 90.1526636,50.195861 90.2162744,49.4387069 C89.8241106,49.4510585 89.4727071,49.4553816 89.1595936,49.4553816 C88.8847701,49.4553816 88.4858129,49.4510585 87.9614867,49.4387069" id="Fill-57" fill="#A9A9A9" mask="url(#mask-2)"></path>
                <polygon id="Fill-58" fill="#A9A9A9" mask="url(#mask-2)" points="178.32246 29.3969109 174.087091 32.1457633 173.489273 38.0362496 177.165731 44.6980944 187.657813 42.1795996"></polygon>
                <polygon id="Fill-59" fill="#A9A9A9" mask="url(#mask-2)" points="144.288567 52.589975 171.75177 45.9979169 166.489982 39.5479023"></polygon>
                <polygon id="Fill-60" fill="#A9A9A9" mask="url(#mask-2)" points="173.904102 23.3474593 156.853929 0.000432306605 168.73989 24.9031455"></polygon>
                <polygon id="Fill-61" fill="#0176A4" mask="url(#mask-2)" points="173.722409 37.9939548 174.320228 32.102851 178.555597 29.3546161 199.772588 15.5844156 174.137424 23.304794 168.973212 24.8604802 157.575758 28.2929946 166.723365 39.5051752 171.985154 45.9558073 190.939946 69.1910522 177.398868 44.6557996"></polygon>
            </g>
        </g>
    </g>
</svg>