<?xml version="1.0" encoding="UTF-8"?>
<svg width="46px" height="40px" viewBox="0 0 46 40" version="1.1" xmlns="http://www.w3.org/2000/svg" xmlns:xlink="http://www.w3.org/1999/xlink">
    <title>Secured local deposits</title>
    <g id="Page-1" stroke="none" stroke-width="1" fill="none" fill-rule="evenodd">
        <g id="AJIAD-HOME" transform="translate(-1071.000000, -1181.000000)" fill-rule="nonzero">
            <g id="Why-Ajiad" transform="translate(784.000000, 975.000000)">
                <g id="payment-(1)" transform="translate(287.000000, 206.000000)">
                    <path d="M42.3387097,8.46703629 L2.82258065,8.46703629 C1.26733871,8.46703629 0,9.734375 0,11.2896169 L0,36.6928427 C0,38.2509073 1.26733871,39.5154234 2.82258065,39.5154234 L42.3387097,39.5154234 C43.8967742,39.5154234 45.1612903,38.2509073 45.1612903,36.6928427 L45.1612903,11.2896169 C45.1612903,9.734375 43.8967742,8.46703629 42.3387097,8.46703629 Z" id="Path" fill="#4398D1"></path>
                    <rect id="Rectangle" fill="#455A64" x="0" y="14.1121976" width="45.1612903" height="8.46774194"></rect>
                    <g id="Group" transform="translate(5.645161, 8.379536)" fill="#FAFAFA">
                        <path d="M7.05645161,22.6681452 L1.41129032,22.6681452 C0.632258065,22.6681452 0,22.0358871 0,21.2568548 C0,20.4778226 0.632258065,19.8455645 1.41129032,19.8455645 L7.05645161,19.8455645 C7.83548387,19.8455645 8.46774194,20.4778226 8.46774194,21.2568548 C8.46774194,22.0358871 7.83548387,22.6681452 7.05645161,22.6681452 Z" id="Path"></path>
                        <path d="M39.516129,14.0479839 L39.516129,2.91008065 C39.516129,1.35483871 38.2516129,0.0875 36.6935484,0.0875 L14.1129032,0.0875 L14.1129032,2.91008065 C14.1129032,11.7504032 17.4774194,17.1330645 26.1258065,22.1120968 C26.7637097,22.4762097 27.4919355,22.6681452 28.2258065,22.6681452 C28.9596774,22.6681452 29.6879032,22.4762097 30.3342742,22.1064516 C34.6133065,19.6479839 37.5939516,17.0822581 39.516129,14.0479839 Z" id="Path"></path>
                    </g>
                    <path d="M44.3060484,4.34889113 L34.4270161,0.115020161 C34.0685484,-0.0373991935 33.6705645,-0.0373991935 33.3120968,0.115020161 L23.4330645,4.34889113 C22.9165323,4.56905242 22.5806452,5.07993952 22.5806452,5.64445565 L22.5806452,11.2896169 C22.5806452,19.0545363 25.4512097,23.593246 33.1681452,28.0388105 C33.3854839,28.163004 33.6282258,28.2251008 33.8709677,28.2251008 C34.1137097,28.2251008 34.3564516,28.163004 34.5737903,28.0388105 C42.2907258,23.6045363 45.1612903,19.0658266 45.1612903,11.2896169 L45.1612903,5.64445565 C45.1612903,5.07993952 44.8254032,4.56905242 44.3060484,4.34889113 Z" id="Path" fill="#0176A4"></path>
                    <path d="M32.4596774,18.3460685 C32.4399194,18.3460685 32.4173387,18.3460685 32.4004032,18.3460685 C31.9516129,18.3263105 31.5366935,18.0948589 31.2854839,17.7194556 L28.4629032,13.4855847 C28.0310484,12.8363911 28.2060484,11.9613911 28.8552419,11.5295363 C29.4987903,11.100504 30.3766129,11.2698589 30.8112903,11.921875 L32.5641129,14.5496976 L37.0012097,9.00050403 C37.4895161,8.39364919 38.378629,8.29768145 38.9854839,8.78034274 C39.5951613,9.26864919 39.691129,10.1549395 39.2056452,10.7646169 L33.5604839,17.8210685 C33.2923387,18.1513105 32.8858871,18.3460685 32.4596774,18.3460685 Z" id="Path" fill="#FAFAFA"></path>
                </g>
            </g>
        </g>
    </g>
</svg>